<svg width="217" height="134" viewBox="0 0 217 134" fill="none" xmlns="http://www.w3.org/2000/svg">
<circle cx="4" cy="4" r="4" fill="#FF99D7"/>
<circle cx="23" cy="4" r="4" fill="#FF99D7"/>
<circle cx="61" cy="4" r="4" fill="#FF99D7"/>
<circle cx="80" cy="4" r="4" fill="#FF99D7"/>
<circle cx="99" cy="4" r="4" fill="#FF99D7"/>
<circle cx="42" cy="4" r="4" fill="#FF99D7"/>
<circle cx="118" cy="4" r="4" fill="#FF99D7"/>
<circle cx="137" cy="4" r="4" fill="#FF99D7"/>
<circle cx="175" cy="4" r="4" fill="#FF99D7"/>
<circle cx="194" cy="4" r="4" fill="#FF99D7"/>
<circle cx="213" cy="4" r="4" fill="#FF99D7"/>
<circle cx="156" cy="4" r="4" fill="#FF99D7"/>
<circle cx="4" cy="22" r="4" fill="#FF99D7"/>
<circle cx="23" cy="22" r="4" fill="#FF99D7"/>
<circle cx="61" cy="22" r="4" fill="#FF99D7"/>
<circle cx="80" cy="22" r="4" fill="#FF99D7"/>
<circle cx="99" cy="22" r="4" fill="#FF99D7"/>
<circle cx="42" cy="22" r="4" fill="#FF99D7"/>
<circle cx="118" cy="22" r="4" fill="#FF99D7"/>
<circle cx="137" cy="22" r="4" fill="#FF99D7"/>
<circle cx="175" cy="22" r="4" fill="#FF99D7"/>
<circle cx="194" cy="22" r="4" fill="#FF99D7"/>
<circle cx="213" cy="22" r="4" fill="#FF99D7"/>
<circle cx="156" cy="22" r="4" fill="#FF99D7"/>
<circle cx="4" cy="40" r="4" fill="#FF99D7"/>
<circle cx="23" cy="40" r="4" fill="#FF99D7"/>
<circle cx="61" cy="40" r="4" fill="#FF99D7"/>
<circle cx="80" cy="40" r="4" fill="#FF99D7"/>
<circle cx="99" cy="40" r="4" fill="#FF99D7"/>
<circle cx="42" cy="40" r="4" fill="#FF99D7"/>
<circle cx="118" cy="40" r="4" fill="#FF99D7"/>
<circle cx="137" cy="40" r="4" fill="#FF99D7"/>
<circle cx="175" cy="40" r="4" fill="#FF99D7"/>
<circle cx="194" cy="40" r="4" fill="#FF99D7"/>
<circle cx="213" cy="40" r="4" fill="#FF99D7"/>
<circle cx="156" cy="40" r="4" fill="#FF99D7"/>
<circle cx="4" cy="58" r="4" fill="#FF99D7"/>
<circle cx="23" cy="58" r="4" fill="#FF99D7"/>
<circle cx="61" cy="58" r="4" fill="#FF99D7"/>
<circle cx="80" cy="58" r="4" fill="#FF99D7"/>
<circle cx="99" cy="58" r="4" fill="#FF99D7"/>
<circle cx="42" cy="58" r="4" fill="#FF99D7"/>
<circle cx="118" cy="58" r="4" fill="#FF99D7"/>
<circle cx="137" cy="58" r="4" fill="#FF99D7"/>
<circle cx="175" cy="58" r="4" fill="#FF99D7"/>
<circle cx="194" cy="58" r="4" fill="#FF99D7"/>
<circle cx="213" cy="58" r="4" fill="#FF99D7"/>
<circle cx="156" cy="58" r="4" fill="#FF99D7"/>
<circle cx="4" cy="76" r="4" fill="#FF99D7"/>
<circle cx="23" cy="76" r="4" fill="#FF99D7"/>
<circle cx="61" cy="76" r="4" fill="#FF99D7"/>
<circle cx="80" cy="76" r="4" fill="#FF99D7"/>
<circle cx="99" cy="76" r="4" fill="#FF99D7"/>
<circle cx="42" cy="76" r="4" fill="#FF99D7"/>
<circle cx="118" cy="76" r="4" fill="#FF99D7"/>
<circle cx="137" cy="76" r="4" fill="#FF99D7"/>
<circle cx="175" cy="76" r="4" fill="#FF99D7"/>
<circle cx="194" cy="76" r="4" fill="#FF99D7"/>
<circle cx="213" cy="76" r="4" fill="#FF99D7"/>
<circle cx="156" cy="76" r="4" fill="#FF99D7"/>
<circle cx="4" cy="94" r="4" fill="#FF99D7"/>
<circle cx="23" cy="94" r="4" fill="#FF99D7"/>
<circle cx="61" cy="94" r="4" fill="#FF99D7"/>
<circle cx="80" cy="94" r="4" fill="#FF99D7"/>
<circle cx="99" cy="94" r="4" fill="#FF99D7"/>
<circle cx="42" cy="94" r="4" fill="#FF99D7"/>
<circle cx="118" cy="94" r="4" fill="#FF99D7"/>
<circle cx="137" cy="94" r="4" fill="#FF99D7"/>
<circle cx="175" cy="94" r="4" fill="#FF99D7"/>
<circle cx="194" cy="94" r="4" fill="#FF99D7"/>
<circle cx="213" cy="94" r="4" fill="#FF99D7"/>
<circle cx="156" cy="94" r="4" fill="#FF99D7"/>
<circle cx="4" cy="112" r="4" fill="#FF99D7"/>
<circle cx="23" cy="112" r="4" fill="#FF99D7"/>
<circle cx="61" cy="112" r="4" fill="#FF99D7"/>
<circle cx="80" cy="112" r="4" fill="#FF99D7"/>
<circle cx="99" cy="112" r="4" fill="#FF99D7"/>
<circle cx="42" cy="112" r="4" fill="#FF99D7"/>
<circle cx="118" cy="112" r="4" fill="#FF99D7"/>
<circle cx="137" cy="112" r="4" fill="#FF99D7"/>
<circle cx="175" cy="112" r="4" fill="#FF99D7"/>
<circle cx="194" cy="112" r="4" fill="#FF99D7"/>
<circle cx="213" cy="112" r="4" fill="#FF99D7"/>
<circle cx="156" cy="112" r="4" fill="#FF99D7"/>
<circle cx="4" cy="130" r="4" fill="#FF99D7"/>
<circle cx="23" cy="130" r="4" fill="#FF99D7"/>
<circle cx="61" cy="130" r="4" fill="#FF99D7"/>
<circle cx="80" cy="130" r="4" fill="#FF99D7"/>
<circle cx="99" cy="130" r="4" fill="#FF99D7"/>
<circle cx="42" cy="130" r="4" fill="#FF99D7"/>
<circle cx="118" cy="130" r="4" fill="#FF99D7"/>
<circle cx="137" cy="130" r="4" fill="#FF99D7"/>
<circle cx="175" cy="130" r="4" fill="#FF99D7"/>
<circle cx="194" cy="130" r="4" fill="#FF99D7"/>
<circle cx="213" cy="130" r="4" fill="#FF99D7"/>
<circle cx="156" cy="130" r="4" fill="#FF99D7"/>
</svg>
