<svg width="637" height="556" viewBox="0 0 637 556" fill="none" xmlns="http://www.w3.org/2000/svg">
<path d="M70.2959 229.086C70.2959 229.086 92.6806 128.691 178.33 154.648C263.98 180.605 282.857 111.172 282.801 85.7998C282.746 60.4278 284.681 11.092 284.681 11.092" stroke="#E1E8FE" stroke-opacity="0.4" stroke-width="3"/>
<path d="M66.3323 313.272C66.3323 313.272 86.728 165.585 210.311 213.925C333.895 262.264 352.785 160.5 349.889 122.541C346.994 84.583 344.241 10.9998 344.241 10.9998" stroke="#E1E8FE" stroke-opacity="0.4" stroke-width="3"/>
<path d="M69.7764 385.221C69.7764 385.221 90.0788 193.015 249.714 260.983C409.348 328.951 429.512 196.698 424.342 146.982C419.172 97.2654 412.801 0.999911 412.801 0.999911" stroke="#E1E8FE" stroke-opacity="0.4" stroke-width="3"/>
<path d="M87.2205 477.171C87.2205 477.171 107.43 240.445 303.116 328.041C498.802 415.638 520.238 252.897 512.794 191.422C505.35 129.948 495.362 11 495.362 11" stroke="#E1E8FE" stroke-opacity="0.4" stroke-width="3"/>
</svg>
